<mxfile host="app.diagrams.net" modified="2023-05-02T13:28:30.013Z" agent="Mozilla/5.0 (Windows NT 10.0; Win64; x64) AppleWebKit/537.36 (KHTML, like Gecko) Chrome/112.0.0.0 Safari/537.36" etag="Iy9XVWKzztPKfvwcLGfQ" version="21.2.4" type="device">
  <diagram name="Страница 1" id="GJLXOss80jrSW28oJ8E_">
    <mxGraphModel dx="1114" dy="433" grid="1" gridSize="10" guides="1" tooltips="1" connect="1" arrows="1" fold="1" page="1" pageScale="1" pageWidth="827" pageHeight="1169" math="0" shadow="0">
      <root>
        <mxCell id="0" />
        <mxCell id="1" parent="0" />
        <mxCell id="d9MBjoXb5DiTq_XmDcXb-7" style="edgeStyle=orthogonalEdgeStyle;rounded=0;orthogonalLoop=1;jettySize=auto;html=1;entryX=0.5;entryY=0;entryDx=0;entryDy=0;" edge="1" parent="1" source="VUMy2NkyHzO2sEJQHFyX-3" target="d9MBjoXb5DiTq_XmDcXb-5">
          <mxGeometry relative="1" as="geometry" />
        </mxCell>
        <mxCell id="VUMy2NkyHzO2sEJQHFyX-3" value="Start" style="ellipse;whiteSpace=wrap;html=1;" parent="1" vertex="1">
          <mxGeometry x="180" y="10" width="100" height="50" as="geometry" />
        </mxCell>
        <mxCell id="d9MBjoXb5DiTq_XmDcXb-9" style="edgeStyle=orthogonalEdgeStyle;rounded=0;orthogonalLoop=1;jettySize=auto;html=1;exitX=0.5;exitY=1;exitDx=0;exitDy=0;" edge="1" parent="1" source="VUMy2NkyHzO2sEJQHFyX-4" target="VUMy2NkyHzO2sEJQHFyX-5">
          <mxGeometry relative="1" as="geometry" />
        </mxCell>
        <mxCell id="VUMy2NkyHzO2sEJQHFyX-4" value="count = 0;&lt;br&gt;&amp;nbsp;i=0;" style="rounded=0;whiteSpace=wrap;html=1;" parent="1" vertex="1">
          <mxGeometry x="170" y="170" width="120" height="60" as="geometry" />
        </mxCell>
        <mxCell id="d9MBjoXb5DiTq_XmDcXb-16" style="edgeStyle=orthogonalEdgeStyle;rounded=0;orthogonalLoop=1;jettySize=auto;html=1;exitX=0.5;exitY=1;exitDx=0;exitDy=0;" edge="1" parent="1" source="VUMy2NkyHzO2sEJQHFyX-5" target="d9MBjoXb5DiTq_XmDcXb-12">
          <mxGeometry relative="1" as="geometry" />
        </mxCell>
        <mxCell id="d9MBjoXb5DiTq_XmDcXb-20" style="edgeStyle=orthogonalEdgeStyle;rounded=0;orthogonalLoop=1;jettySize=auto;html=1;exitX=1;exitY=0.5;exitDx=0;exitDy=0;" edge="1" parent="1" source="VUMy2NkyHzO2sEJQHFyX-5" target="d9MBjoXb5DiTq_XmDcXb-18">
          <mxGeometry relative="1" as="geometry" />
        </mxCell>
        <mxCell id="VUMy2NkyHzO2sEJQHFyX-5" value="i&amp;lt;array.Legth" style="rhombus;whiteSpace=wrap;html=1;" parent="1" vertex="1">
          <mxGeometry x="160" y="260" width="140" height="60" as="geometry" />
        </mxCell>
        <mxCell id="d9MBjoXb5DiTq_XmDcXb-8" style="edgeStyle=orthogonalEdgeStyle;rounded=0;orthogonalLoop=1;jettySize=auto;html=1;exitX=0.5;exitY=1;exitDx=0;exitDy=0;entryX=0.5;entryY=0;entryDx=0;entryDy=0;" edge="1" parent="1" source="d9MBjoXb5DiTq_XmDcXb-5" target="VUMy2NkyHzO2sEJQHFyX-4">
          <mxGeometry relative="1" as="geometry" />
        </mxCell>
        <mxCell id="d9MBjoXb5DiTq_XmDcXb-5" value="Array input" style="shape=parallelogram;perimeter=parallelogramPerimeter;whiteSpace=wrap;html=1;fixedSize=1;" vertex="1" parent="1">
          <mxGeometry x="170" y="90" width="120" height="40" as="geometry" />
        </mxCell>
        <mxCell id="d9MBjoXb5DiTq_XmDcXb-26" style="edgeStyle=orthogonalEdgeStyle;rounded=0;orthogonalLoop=1;jettySize=auto;html=1;exitX=0.5;exitY=0;exitDx=0;exitDy=0;entryX=0;entryY=0.5;entryDx=0;entryDy=0;" edge="1" parent="1" source="d9MBjoXb5DiTq_XmDcXb-6" target="VUMy2NkyHzO2sEJQHFyX-5">
          <mxGeometry relative="1" as="geometry" />
        </mxCell>
        <mxCell id="d9MBjoXb5DiTq_XmDcXb-6" value="i++" style="rounded=0;whiteSpace=wrap;html=1;" vertex="1" parent="1">
          <mxGeometry x="50" y="368" width="80" height="40" as="geometry" />
        </mxCell>
        <mxCell id="d9MBjoXb5DiTq_XmDcXb-11" value="yes" style="text;html=1;align=center;verticalAlign=middle;resizable=0;points=[];autosize=1;strokeColor=none;fillColor=none;" vertex="1" parent="1">
          <mxGeometry x="230" y="328" width="40" height="30" as="geometry" />
        </mxCell>
        <mxCell id="d9MBjoXb5DiTq_XmDcXb-24" style="edgeStyle=orthogonalEdgeStyle;rounded=0;orthogonalLoop=1;jettySize=auto;html=1;exitX=0.5;exitY=1;exitDx=0;exitDy=0;entryX=0.625;entryY=0.025;entryDx=0;entryDy=0;entryPerimeter=0;" edge="1" parent="1" source="d9MBjoXb5DiTq_XmDcXb-12" target="d9MBjoXb5DiTq_XmDcXb-23">
          <mxGeometry relative="1" as="geometry" />
        </mxCell>
        <mxCell id="d9MBjoXb5DiTq_XmDcXb-27" style="edgeStyle=orthogonalEdgeStyle;rounded=0;orthogonalLoop=1;jettySize=auto;html=1;exitX=0;exitY=0.5;exitDx=0;exitDy=0;entryX=1;entryY=0.5;entryDx=0;entryDy=0;" edge="1" parent="1" source="d9MBjoXb5DiTq_XmDcXb-12" target="d9MBjoXb5DiTq_XmDcXb-6">
          <mxGeometry relative="1" as="geometry" />
        </mxCell>
        <mxCell id="d9MBjoXb5DiTq_XmDcXb-12" value="if array.Length&amp;lt;=3" style="rhombus;whiteSpace=wrap;html=1;" vertex="1" parent="1">
          <mxGeometry x="160" y="358" width="140" height="60" as="geometry" />
        </mxCell>
        <mxCell id="d9MBjoXb5DiTq_XmDcXb-15" value="yes" style="text;html=1;align=center;verticalAlign=middle;resizable=0;points=[];autosize=1;strokeColor=none;fillColor=none;" vertex="1" parent="1">
          <mxGeometry x="240" y="418" width="40" height="30" as="geometry" />
        </mxCell>
        <mxCell id="d9MBjoXb5DiTq_XmDcXb-22" style="edgeStyle=orthogonalEdgeStyle;rounded=0;orthogonalLoop=1;jettySize=auto;html=1;entryX=0.5;entryY=0;entryDx=0;entryDy=0;" edge="1" parent="1" source="d9MBjoXb5DiTq_XmDcXb-18" target="d9MBjoXb5DiTq_XmDcXb-19">
          <mxGeometry relative="1" as="geometry" />
        </mxCell>
        <mxCell id="d9MBjoXb5DiTq_XmDcXb-18" value="Print count" style="shape=document;whiteSpace=wrap;html=1;boundedLbl=1;" vertex="1" parent="1">
          <mxGeometry x="360" y="265" width="120" height="50" as="geometry" />
        </mxCell>
        <mxCell id="d9MBjoXb5DiTq_XmDcXb-19" value="Stop" style="ellipse;whiteSpace=wrap;html=1;" vertex="1" parent="1">
          <mxGeometry x="375" y="350" width="90" height="58" as="geometry" />
        </mxCell>
        <mxCell id="d9MBjoXb5DiTq_XmDcXb-21" value="no" style="text;html=1;align=center;verticalAlign=middle;resizable=0;points=[];autosize=1;strokeColor=none;fillColor=none;" vertex="1" parent="1">
          <mxGeometry x="310" y="260" width="40" height="30" as="geometry" />
        </mxCell>
        <mxCell id="d9MBjoXb5DiTq_XmDcXb-25" style="edgeStyle=orthogonalEdgeStyle;rounded=0;orthogonalLoop=1;jettySize=auto;html=1;exitX=0;exitY=0.5;exitDx=0;exitDy=0;entryX=0.5;entryY=1;entryDx=0;entryDy=0;" edge="1" parent="1" source="d9MBjoXb5DiTq_XmDcXb-23" target="d9MBjoXb5DiTq_XmDcXb-6">
          <mxGeometry relative="1" as="geometry" />
        </mxCell>
        <mxCell id="d9MBjoXb5DiTq_XmDcXb-23" value="count++" style="rounded=0;whiteSpace=wrap;html=1;" vertex="1" parent="1">
          <mxGeometry x="180" y="448" width="80" height="40" as="geometry" />
        </mxCell>
        <mxCell id="d9MBjoXb5DiTq_XmDcXb-28" value="no" style="text;html=1;align=center;verticalAlign=middle;resizable=0;points=[];autosize=1;strokeColor=none;fillColor=none;" vertex="1" parent="1">
          <mxGeometry x="130" y="348" width="40" height="30" as="geometry" />
        </mxCell>
      </root>
    </mxGraphModel>
  </diagram>
</mxfile>
